# xmcd
#
# Track frame offsets: 
#        150
#        11265
#        27056
#        39656
#        53163
#        63661
#        77367
#        90402
#        102348
#        120269
#        130171
#        143285
#        162035
#        176359
#        193835
#        209055
#        224483
#        239208
#        255317
#        268065
#        285973
#        300041
#        318021
#        338124
#
# Disc length: 4759 seconds
#
# Revision: 0
# Processed by: cddbd v1.5.2PL0 Copyright (c) Steve Scherf et al.
# Submitted via: ExactAudioCopy v0.95a5
#
DISCID=3a129518
DTITLE=Hayseed Dixie - Country Route  CD1
DYEAR=2011
DGENRE=Country
TTITLE0=Highway To Hell
TTITLE1=You Shook Me All Night Long
TTITLE2=Dirty Deeds Done Dirt Cheap
TTITLE3=Hell's Bells
TTITLE4=Money Talks
TTITLE5=Let's Get It Up
TTITLE6=Have A Drink On Me
TTITLE7=T.N.T
TTITLE8=Back In Black
TTITLE9=Big Balls
TTITLE10=Calling Dr. Love
TTITLE11=Detroit Rock City
TTITLE12=Christine Sixteen
TTITLE13=Cold Gin
TTITLE14=Let's Put The X In Sex
TTITLE15=Love Gun
TTITLE16=Lick It Up
TTITLE17=I Love It Loud
TTITLE18=Rock and Roll All Nite
TTITLE19=Heavens On Fire
TTITLE20=Black Dog
TTITLE21=Whole Lotta Love
TTITLE22=War Pigs
TTITLE23=Sabbath Bloody Sabbath
EXTD=
EXTT0=
EXTT1=
EXTT2=
EXTT3=
EXTT4=
EXTT5=
EXTT6=
EXTT7=
EXTT8=
EXTT9=
EXTT10=
EXTT11=
EXTT12=
EXTT13=
EXTT14=
EXTT15=
EXTT16=
EXTT17=
EXTT18=
EXTT19=
EXTT20=
EXTT21=
EXTT22=
EXTT23=
PLAYORDER=
